<svg height="512" viewBox="0 0 64 64" width="512" xmlns="http://www.w3.org/2000/svg" xmlns:xlink="http://www.w3.org/1999/xlink"><linearGradient id="linear-gradient" gradientUnits="userSpaceOnUse" x1="-1.611" x2="65.042" y1="63.423" y2="-3.23"><stop offset="0" stop-color="#003f8a"/><stop offset=".518" stop-color="#00d7df"/><stop offset="1" stop-color="#006df0"/></linearGradient><linearGradient id="linear-gradient-2" x1="-8.017" x2="58.636" xlink:href="#linear-gradient" y1="57.017" y2="-9.636"/><linearGradient id="linear-gradient-3" x1="-12.241" x2="54.412" xlink:href="#linear-gradient" y1="52.794" y2="-13.859"/><linearGradient id="linear-gradient-4" x1="12.733" x2="79.386" xlink:href="#linear-gradient" y1="77.767" y2="11.114"/><linearGradient id="linear-gradient-5" x1="9.483" x2="76.136" xlink:href="#linear-gradient" y1="74.517" y2="7.864"/><path d="m48 17a16 16 0 1 0 -17 15.949v4.051h-2a1 1 0 0 0 -1 1v22a3 3 0 0 0 3 3h2a3 3 0 0 0 3-3v-22a1 1 0 0 0 -1-1h-2v-4.051a16.007 16.007 0 0 0 15-15.949zm-14 22v21a1 1 0 0 1 -1 1h-2a1 1 0 0 1 -1-1v-21zm-16-22a14 14 0 1 1 14 14 14.015 14.015 0 0 1 -14-14z" fill="url(#linear-gradient)"/><path d="m44 17a12 12 0 1 0 -12 12 12.013 12.013 0 0 0 12-12zm-22 0a10 10 0 1 1 10 10 10.011 10.011 0 0 1 -10-10z" fill="url(#linear-gradient-2)"/><path d="m33 10a1 1 0 0 0 -1-1 8.009 8.009 0 0 0 -8 8 1 1 0 0 0 2 0 6.006 6.006 0 0 1 6-6 1 1 0 0 0 1-1z" fill="url(#linear-gradient-3)"/><path d="m32 60a1 1 0 0 0 1-1v-1a1 1 0 0 0 -2 0v1a1 1 0 0 0 1 1z" fill="url(#linear-gradient-4)"/><path d="m32 56a1 1 0 0 0 1-1v-6a1 1 0 0 0 -2 0v6a1 1 0 0 0 1 1z" fill="url(#linear-gradient-5)"/></svg>